<svg id="Layer_1" data-name="Layer 1" xmlns="http://www.w3.org/2000/svg" width="411.84" height="110.74" viewBox="0 0 411.84 110.74">
  <defs>
    <style>
      .cls-1 {
        fill: #3e3935;
      }

      .cls-2 {
        fill: #218ece;
      }
    </style>
  </defs>
  <title>HackReactorLogo</title>
  <g>
    <g>
      <path class="cls-1" d="M56.76,22.62A42.58,42.58,0,0,0,22.82,64.09c0,22.35,17.57,40.71,39.76,42.29V87.57a23.65,23.65,0,0,1,0-47V34.8a29.39,29.39,0,0,0-5.82,57.38v7.46a36.57,36.57,0,0,1,5.82-72.06h0V9.16c-29.22,1.6-52.5,25.62-52.5,54.93S33.36,117.41,62.59,119v-5.78c-26-1.59-46.68-23-46.68-49.15,0-24.14,17.65-44.26,40.85-48.43" transform="translate(-10.08 -8.8)"/>
      <path class="cls-2" d="M68.71,8.8v5.83c26.22,1.61,47.05,23.21,47.05,49.54C115.77,88.5,98,108.78,74.59,113v-7a42.92,42.92,0,0,0,34.21-41.8c0-22.53-17.71-41-40.08-42.63v19a23.84,23.84,0,0,1,0,47.34v5.85a29.62,29.62,0,0,0,5.87-57.84V28.33A36.87,36.87,0,0,1,68.71,101v18.57c29.46-1.61,52.93-25.83,52.93-55.37S98.17,10.41,68.71,8.8Z" transform="translate(-10.08 -8.8)"/>
    </g>
    <g>
      <path class="cls-1" d="M171.06,54.3V35.53H148.75V54.3h-7.52V11.42h7.52V28.91h22.31V11.42h7.52V54.3h-7.52Z" transform="translate(-10.08 -8.8)"/>
      <path class="cls-1" d="M217.78,54.3L214.63,46H195l-3.15,8.29h-8.55L200.1,11.42h9.39L226.33,54.3h-8.55Zm-13-35.36-7.71,20.44h15.43Z" transform="translate(-10.08 -8.8)"/>
      <path class="cls-1" d="M227,32.89c0-13.24,9.84-22.18,22.5-22.18a19.23,19.23,0,0,1,17.16,9.58l-6.36,3.34a12.67,12.67,0,0,0-10.8-6.24c-8.49,0-14.79,6.43-14.79,15.49s6.3,15.49,14.79,15.49a12.81,12.81,0,0,0,10.8-6.24l6.43,3.21c-3.28,5.14-8.61,9.71-17.23,9.71C236.83,55.07,227,46.07,227,32.89Z" transform="translate(-10.08 -8.8)"/>
      <path class="cls-1" d="M298.37,54.3L284,36.17l-3.79,4.44V54.3h-7.52V11.42h7.52V31.8L297,11.42h9.32L288.92,31.61,307.69,54.3h-9.32Z" transform="translate(-10.08 -8.8)"/>
      <path class="cls-1" d="M165.72,116.92l-9.45-16h-7.52v16h-7.52V74h18.84c8.49,0,14.08,5.46,14.08,13.44,0,7.59-5,11.76-10.22,12.6l10.54,16.84h-8.74Zm0.71-29.51c0-4.11-3.09-6.75-7.33-6.75H148.75V94.29H159.1C163.34,94.29,166.43,91.59,166.43,87.42Z" transform="translate(-10.08 -8.8)"/>
      <path class="cls-1" d="M181.63,116.92V74H211v6.62H189.15V91.72h21.41v6.62H189.15v12H211v6.62H181.63Z" transform="translate(-10.08 -8.8)"/>
      <path class="cls-1" d="M249.39,116.92l-3.15-8.29H226.57l-3.15,8.29h-8.55L231.71,74h9.39l16.84,42.88h-8.55Zm-13-35.36L228.69,102h15.43Z" transform="translate(-10.08 -8.8)"/>
      <path class="cls-1" d="M258.6,95.52c0-13.24,9.83-22.18,22.5-22.18a19.23,19.23,0,0,1,17.16,9.58l-6.36,3.34A12.68,12.68,0,0,0,281.1,80c-8.49,0-14.79,6.43-14.79,15.49S272.62,111,281.1,111a12.82,12.82,0,0,0,10.8-6.24l6.43,3.21c-3.28,5.14-8.61,9.71-17.23,9.71C268.44,117.69,258.6,108.69,258.6,95.52Z" transform="translate(-10.08 -8.8)"/>
      <path class="cls-1" d="M314.91,116.92V80.67h-13V74h33.49v6.62h-13v36.26h-7.52Z" transform="translate(-10.08 -8.8)"/>
      <path class="cls-1" d="M337.63,95.52c0-12.79,9.06-22.18,21.92-22.18s21.92,9.39,21.92,22.18-9.13,22.18-21.92,22.18S337.63,108.31,337.63,95.52Zm36.13,0c0-8.87-5.59-15.49-14.21-15.49s-14.21,6.62-14.21,15.49S350.87,111,359.55,111,373.76,104.32,373.76,95.52Z" transform="translate(-10.08 -8.8)"/>
      <path class="cls-1" d="M413.18,116.92l-9.45-16H396.2v16h-7.52V74h18.83c8.49,0,14.08,5.46,14.08,13.44,0,7.59-5,11.76-10.22,12.6l10.54,16.84h-8.74Zm0.71-29.51c0-4.11-3.08-6.75-7.33-6.75H396.2V94.29h10.35C410.8,94.29,413.88,91.59,413.88,87.42Z" transform="translate(-10.08 -8.8)"/>
    </g>
  </g>
</svg>
